<svg width="16" height="16" viewBox="0 0 16 16" fill="none" xmlns="http://www.w3.org/2000/svg">
<path d="M14.9222 4.5957C14.7792 4.47628 14.6054 4.39949 14.4208 4.37407C14.2362 4.34866 14.0482 4.37565 13.8782 4.45196L10.7167 5.85712L8.87592 2.5437C8.78932 2.3878 8.66261 2.25789 8.5089 2.16744C8.3552 2.07699 8.18011 2.0293 8.00177 2.0293C7.82343 2.0293 7.64834 2.07699 7.49464 2.16744C7.34093 2.25789 7.21422 2.3878 7.12762 2.5437L5.2868 5.85705L2.12482 4.45172C1.95469 4.37613 1.76684 4.34953 1.58241 4.37491C1.39798 4.4003 1.22431 4.47666 1.08093 4.5954C0.937545 4.71414 0.830157 4.87055 0.770851 5.04702C0.711545 5.22348 0.702675 5.413 0.745239 5.59424L2.33557 12.365C2.36583 12.4961 2.42249 12.6197 2.5021 12.7281C2.58171 12.8366 2.68259 12.9276 2.79858 12.9958C2.91518 13.0644 3.04438 13.1089 3.17852 13.1267C3.31265 13.1444 3.44898 13.135 3.57941 13.099C6.47252 12.3003 9.52793 12.3 12.4212 13.0981C12.5516 13.1341 12.6878 13.1435 12.8219 13.1257C12.956 13.108 13.0851 13.0635 13.2017 12.9949C13.3176 12.9268 13.4185 12.8358 13.4981 12.7275C13.5777 12.6191 13.6344 12.4957 13.6647 12.3647L15.2578 5.59479C15.3011 5.41355 15.2926 5.22378 15.2333 5.04712C15.174 4.87047 15.0662 4.71405 14.9222 4.5957V4.5957ZM10.499 10.157C10.4922 10.2223 10.4726 10.2857 10.4413 10.3434C10.41 10.4011 10.3676 10.4521 10.3166 10.4935C10.2655 10.5348 10.2068 10.5657 10.1438 10.5843C10.0808 10.6029 10.0148 10.6089 9.94946 10.6019C8.65456 10.4659 7.34898 10.4659 6.05407 10.6019C5.92245 10.6153 5.79088 10.576 5.68819 10.4925C5.58551 10.4091 5.52008 10.2884 5.50624 10.1568C5.4924 10.0252 5.53127 9.89351 5.61435 9.79054C5.69742 9.68757 5.81793 9.62172 5.94946 9.60742C7.31391 9.46411 8.68962 9.46411 10.0541 9.60742C10.1194 9.61428 10.1827 9.63394 10.2404 9.66528C10.2981 9.69661 10.3491 9.739 10.3904 9.79004C10.4317 9.84107 10.4626 9.89974 10.4812 9.9627C10.4998 10.0257 10.5059 10.0917 10.499 10.157V10.157Z" fill="white"/>
</svg>
