<svg width="24" height="24" viewBox="0 0 24 24" fill="none" xmlns="http://www.w3.org/2000/svg">
<path d="M8.99935 7.00002V9.00002C8.99935 9.79567 9.31542 10.5587 9.87803 11.1213C10.4406 11.6839 11.2037 12 11.9994 12C12.795 12 13.5581 11.6839 14.1207 11.1213C14.6833 10.5587 14.9994 9.79567 14.9994 9.00002V7.00002M19.8794 21H4.11935C3.97824 21.0009 3.83854 20.9719 3.70944 20.9149C3.58035 20.8579 3.46477 20.7742 3.37032 20.6694C3.27587 20.5645 3.20467 20.4409 3.16142 20.3066C3.11816 20.1722 3.10383 20.0303 3.11935 19.89L4.89935 3.89002C4.92654 3.6443 5.04379 3.41736 5.22846 3.253C5.41313 3.08864 5.65214 2.99852 5.89935 3.00002H18.0994C18.3466 2.99852 18.5856 3.08864 18.7702 3.253C18.9549 3.41736 19.0722 3.6443 19.0994 3.89002L20.8794 19.89C20.8949 20.0303 20.8805 20.1722 20.8373 20.3066C20.794 20.4409 20.7228 20.5645 20.6284 20.6694C20.5339 20.7742 20.4184 20.8579 20.2893 20.9149C20.1602 20.9719 20.0205 21.0009 19.8794 21Z" stroke="black" stroke-width="2" stroke-linecap="round" stroke-linejoin="round"/>
</svg>
