<svg width="67" height="32" viewBox="0 0 67 32" fill="none" xmlns="http://www.w3.org/2000/svg">
<g clip-path="url(#clip0_2828_1470)">
<path d="M7.32196 14.6439C11.3658 14.6439 14.6439 11.3658 14.6439 7.32196C14.6439 3.27815 11.3658 0 7.32196 0C3.27815 0 0 3.27815 0 7.32196C0 11.3658 3.27815 14.6439 7.32196 14.6439Z" fill="black"/>
<path d="M36.8528 0L32.6209 7.33036L22.8555 24.2414V24.2834C21.5686 26.4988 19.7224 28.3372 17.5016 29.6149C15.2809 30.8925 12.7636 31.5644 10.2016 31.5634H7.30469L11.503 24.2414L21.3021 7.33036C22.5854 5.1025 24.4329 3.252 26.6587 1.96516C28.8846 0.678306 31.4101 0.000512337 33.9811 0H36.8528Z" fill="black"/>
<path d="M51.6223 0L47.3988 7.33036L37.6249 24.2414V24.2834C36.3381 26.4988 34.4919 28.3372 32.2711 29.6149C30.0504 30.8925 27.5331 31.5644 24.971 31.5634H22.0742L26.2725 24.2414L36.1051 7.33036C37.3856 5.10742 39.2279 3.2601 41.4473 1.97354C43.6667 0.686989 46.1853 0.00640299 48.7506 0H51.6223Z" fill="black"/>
<path d="M66.3841 0L62.1353 7.33036L52.3867 24.2414V24.2834C51.0998 26.4988 49.2536 28.3372 47.0329 29.6149C44.8122 30.8925 42.2948 31.5644 39.7328 31.5634H36.8359L41.0343 24.2414L50.8333 7.33036C52.1166 5.1025 53.9642 3.252 56.19 1.96516C58.4158 0.678306 60.9414 0.000512337 63.5124 0H66.3841Z" fill="black"/>
</g>
<defs>
<clipPath id="clip0_2828_1470">
<rect width="67" height="32" fill="white"/>
</clipPath>
</defs>
</svg>
