<svg width="1003" height="163" viewBox="0 0 1003 163" fill="none" xmlns="http://www.w3.org/2000/svg">
<path fill-rule="evenodd" clip-rule="evenodd" d="M145.093 83.0868C145.874 82.3057 145.874 81.0394 145.093 80.2583L120.244 55.4096C100.922 36.0872 69.5942 36.0872 50.2717 55.4096L25.423 80.2583C24.6419 81.0394 24.6419 82.3057 25.423 83.0868L50.2717 107.935C69.5942 127.258 100.922 127.258 120.244 107.935L145.093 83.0868ZM16.6966 83.0868C17.4776 82.3057 17.4776 81.0394 16.6966 80.2583L0 63.5618L29.2119 34.3498C60.1654 3.39641 110.351 3.3964 141.304 34.3498L170.516 63.5618L153.82 80.2583C153.039 81.0394 153.039 82.3057 153.82 83.0868L170.516 99.7833L141.304 128.995C110.351 159.949 60.1654 159.949 29.2119 128.995L0 99.7833L16.6966 83.0868Z" fill="black"/>
<path d="M84.195 53.244C84.6684 52.0608 86.3433 52.0608 86.8167 53.244C92.0474 66.3171 102.582 76.6794 115.706 81.7814C116.914 82.2512 116.914 83.9756 115.706 84.4453C102.582 89.5474 92.0474 99.9096 86.8167 112.983C86.3433 114.166 84.6684 114.166 84.195 112.983C78.9643 99.9096 68.4299 89.5474 55.306 84.4453C54.0978 83.9756 54.0978 82.2512 55.306 81.7814C68.4299 76.6794 78.9643 66.3171 84.195 53.244Z" fill="black"/>
<path d="M309.772 132.464V31.3464H340.813V132.464H309.772Z" fill="black"/>
<path d="M349.765 100.511H379.194C379.597 107.589 384.838 111.836 394.311 111.836C403.986 111.836 408.421 108.398 408.421 103.14C408.421 100.106 406.808 96.8704 399.35 95.2525L380.806 91.2078C362.262 87.1631 353.192 79.0738 353.192 61.2771C353.192 40.2447 371.131 28.1106 395.319 28.1106C418.7 28.1106 435.027 41.8626 435.027 62.2883H405.599C405.599 55.4123 401.366 50.7609 393.908 50.7609C386.853 50.7609 382.419 54.4011 382.419 59.8615C382.419 64.5128 386.248 67.1419 393.303 68.7598L412.049 72.8045C428.577 76.4447 437.647 84.1296 437.647 100.308C437.647 121.947 419.305 135.093 393.102 135.093C366.495 135.093 349.765 120.936 349.765 100.511Z" fill="black"/>
<path d="M513.708 31.3464H544.749V132.464H515.522L513.506 121.139C507.258 129.43 494.761 135.093 482.667 135.093C459.689 135.093 445.579 119.723 445.579 94.8481V31.3464H476.62V83.5229C476.62 100.106 482.264 107.387 494.963 107.387C508.266 107.387 513.708 100.511 513.708 83.9274V31.3464Z" fill="black"/>
<path d="M591.4 135.093C570.034 135.093 556.731 122.554 556.731 102.735C556.731 84.1296 569.833 72.6022 594.02 70.7821L622.239 68.5575V66.9397C622.239 57.0302 616.192 51.7721 605.106 51.7721C592.005 51.7721 584.95 56.8279 584.95 65.9285H559.15C559.15 43.076 577.895 28.1106 606.719 28.1106C635.946 28.1106 652.474 44.4916 652.474 73.4112V132.464H625.061L623.046 119.116C619.821 128.419 606.517 135.093 591.4 135.093ZM602.285 112.038C614.177 112.038 622.441 106.173 622.441 94.6458V89.1855L606.719 90.6011C593.214 91.8145 588.377 94.848 588.377 101.32C588.377 108.6 592.811 112.038 602.285 112.038Z" fill="black"/>
<path d="M698.7 132.464H667.659V0.000108487H698.7V132.464Z" fill="black"/>
<path d="M758.924 132.464H727.883V57.2324H708.734V31.3464H727.883V0H758.924V31.3464H778.072V57.2324H758.924V132.464Z" fill="black"/>
<path d="M818.679 135.093C797.314 135.093 784.01 122.554 784.01 102.735C784.01 84.1296 797.112 72.6022 821.3 70.7821L849.519 68.5575V66.9397C849.519 57.0302 843.472 51.7721 832.386 51.7721C819.284 51.7721 812.229 56.8279 812.229 65.9285H786.429C786.429 43.076 805.175 28.1106 833.998 28.1106C863.225 28.1106 879.753 44.4916 879.753 73.4112V132.464H852.341L850.325 119.116C847.1 128.419 833.797 135.093 818.679 135.093ZM829.564 112.038C841.456 112.038 849.72 106.173 849.72 94.6458V89.1855L833.998 90.6011C820.493 91.8145 815.656 94.848 815.656 101.32C815.656 108.6 820.09 112.038 829.564 112.038Z" fill="black"/>
<path d="M891.938 163V31.3464H921.165L922.778 43.6827C928.422 34.3799 941.12 28.1106 955.431 28.1106C983.449 28.1106 1003 47.7274 1003 80.2872C1003 112.24 985.666 135.295 955.633 135.295C941.725 135.295 928.825 130.037 922.979 122.352V163H891.938ZM923.181 81.905C923.181 97.0726 933.259 107.184 947.772 107.184C962.486 107.184 971.758 96.8704 971.758 81.905C971.758 66.9397 962.486 56.6257 947.772 56.6257C933.259 56.6257 923.181 66.7374 923.181 81.905Z" fill="black"/>
<path fill-rule="evenodd" clip-rule="evenodd" d="M235.119 132.5H264.95L306.069 31.3827H273.819L260.314 66.7737C256.28 77.296 253.466 88.0538 251.02 97.2977C250.756 98.2934 249.345 98.2851 249.089 97.2874C246.717 88.0458 243.787 77.2921 239.755 66.7737L226.25 31.3827H194L235.119 132.5Z" fill="black"/>
</svg>
