<svg width="147" height="34" viewBox="0 0 147 34" fill="none" xmlns="http://www.w3.org/2000/svg">
<g clip-path="url(#clip0_2828_1462)">
<path d="M7.32196 14.6439C11.3658 14.6439 14.6439 11.3658 14.6439 7.32196C14.6439 3.27815 11.3658 0 7.32196 0C3.27815 0 0 3.27815 0 7.32196C0 11.3658 3.27815 14.6439 7.32196 14.6439Z" fill="black"/>
<path d="M36.8528 0L32.6209 7.33036L22.8555 24.2414V24.2834C21.5686 26.4988 19.7224 28.3372 17.5016 29.6149C15.2809 30.8925 12.7636 31.5644 10.2016 31.5634H7.30469L11.503 24.2414L21.3021 7.33036C22.5854 5.1025 24.4329 3.252 26.6587 1.96516C28.8846 0.678306 31.4101 0.000512337 33.9811 0H36.8528Z" fill="black"/>
<path d="M51.6223 0L47.3988 7.33036L37.6249 24.2414V24.2834C36.3381 26.4988 34.4919 28.3372 32.2711 29.6149C30.0504 30.8925 27.5331 31.5644 24.971 31.5634H22.0742L26.2725 24.2414L36.1051 7.33036C37.3856 5.10742 39.2279 3.2601 41.4473 1.97354C43.6667 0.686989 46.1853 0.00640299 48.7506 0H51.6223Z" fill="black"/>
<path d="M66.3841 0L62.1353 7.33036L52.3867 24.2414V24.2834C51.0998 26.4988 49.2536 28.3372 47.0329 29.6149C44.8122 30.8925 42.2948 31.5644 39.7328 31.5634H36.8359L41.0343 24.2414L50.8333 7.33036C52.1166 5.1025 53.9642 3.252 56.19 1.96516C58.4158 0.678306 60.9414 0.000512337 63.5124 0H66.3841Z" fill="black"/>
</g>
<path d="M80.856 14.24C79.7093 14.24 78.736 13.9867 77.936 13.48C77.136 12.9733 76.5253 12.2693 76.104 11.368C75.688 10.4667 75.48 9.424 75.48 8.24C75.48 7.056 75.688 6.01333 76.104 5.112C76.5253 4.21067 77.136 3.50667 77.936 3C78.736 2.49333 79.7093 2.24 80.856 2.24C82.008 2.24 82.984 2.49333 83.784 3C84.584 3.50667 85.192 4.21067 85.608 5.112C86.024 6.01333 86.232 7.056 86.232 8.24C86.232 9.424 86.024 10.4667 85.608 11.368C85.192 12.2693 84.584 12.9733 83.784 13.48C82.984 13.9867 82.008 14.24 80.856 14.24ZM80.856 12.88C81.7147 12.8853 82.4293 12.6933 83 12.304C83.576 11.9093 84.0053 11.3627 84.288 10.664C84.576 9.96533 84.72 9.15733 84.72 8.24C84.72 7.31733 84.576 6.50933 84.288 5.816C84.0053 5.12267 83.576 4.58133 83 4.192C82.4293 3.80267 81.7147 3.60533 80.856 3.6C79.9973 3.59467 79.2827 3.78667 78.712 4.176C78.1467 4.56533 77.72 5.10933 77.432 5.808C77.144 6.50667 76.9973 7.31733 76.992 8.24C76.9867 9.15733 77.128 9.96267 77.416 10.656C77.704 11.3493 78.1333 11.8933 78.704 12.288C79.28 12.6773 79.9973 12.8747 80.856 12.88ZM93.3507 14V9.672C93.3507 9.26133 93.3134 8.86667 93.2387 8.488C93.1694 8.10933 93.0441 7.77067 92.8628 7.472C92.6868 7.168 92.4468 6.928 92.1427 6.752C91.8441 6.576 91.4654 6.488 91.0068 6.488C90.6494 6.488 90.3241 6.54933 90.0307 6.672C89.7427 6.78933 89.4947 6.97067 89.2867 7.216C89.0787 7.46133 88.9161 7.77067 88.7987 8.144C88.6867 8.512 88.6307 8.94667 88.6307 9.448L87.6947 9.16C87.6947 8.32267 87.8441 7.60533 88.1427 7.008C88.4467 6.40533 88.8707 5.944 89.4147 5.624C89.9641 5.29867 90.6094 5.136 91.3507 5.136C91.9108 5.136 92.3881 5.224 92.7828 5.4C93.1774 5.576 93.5054 5.81067 93.7667 6.104C94.0281 6.392 94.2334 6.71733 94.3828 7.08C94.5321 7.43733 94.6361 7.80267 94.6947 8.176C94.7588 8.544 94.7908 8.89333 94.7908 9.224V14H93.3507ZM87.1907 14V5.36H88.4707V7.672H88.6307V14H87.1907ZM99.8965 14.24C99.0485 14.24 98.3072 14.0533 97.6725 13.68C97.0432 13.3013 96.5525 12.776 96.2005 12.104C95.8485 11.4267 95.6725 10.6373 95.6725 9.736C95.6725 8.792 95.8458 7.976 96.1925 7.288C96.5392 6.59467 97.0218 6.06133 97.6405 5.688C98.2645 5.30933 98.9952 5.12 99.8325 5.12C100.702 5.12 101.44 5.32 102.048 5.72C102.662 6.12 103.12 6.69067 103.424 7.432C103.734 8.17333 103.867 9.056 103.825 10.08H102.384V9.568C102.368 8.50667 102.152 7.71467 101.736 7.192C101.32 6.664 100.702 6.4 99.8805 6.4C99.0005 6.4 98.3312 6.68267 97.8725 7.248C97.4138 7.81333 97.1845 8.624 97.1845 9.68C97.1845 10.6987 97.4138 11.488 97.8725 12.048C98.3312 12.608 98.9845 12.888 99.8325 12.888C100.403 12.888 100.899 12.7573 101.32 12.496C101.742 12.2347 102.072 11.8587 102.312 11.368L103.681 11.84C103.344 12.6027 102.838 13.1947 102.16 13.616C101.488 14.032 100.734 14.24 99.8965 14.24ZM96.7045 10.08V8.936H103.089V10.08H96.7045ZM109.369 14L106.729 5.352L108.145 5.36L110.073 11.68L112.017 5.36H113.273L115.209 11.68L117.145 5.36H118.553L115.913 14H114.729L112.641 7.432L110.553 14H109.369ZM122.789 14.24C121.941 14.24 121.2 14.0533 120.565 13.68C119.936 13.3013 119.445 12.776 119.093 12.104C118.741 11.4267 118.565 10.6373 118.565 9.736C118.565 8.792 118.738 7.976 119.085 7.288C119.432 6.59467 119.914 6.06133 120.533 5.688C121.157 5.30933 121.888 5.12 122.725 5.12C123.594 5.12 124.333 5.32 124.941 5.72C125.554 6.12 126.013 6.69067 126.317 7.432C126.626 8.17333 126.76 9.056 126.717 10.08H125.277V9.568C125.261 8.50667 125.045 7.71467 124.629 7.192C124.213 6.664 123.594 6.4 122.773 6.4C121.893 6.4 121.224 6.68267 120.765 7.248C120.306 7.81333 120.077 8.624 120.077 9.68C120.077 10.6987 120.306 11.488 120.765 12.048C121.224 12.608 121.877 12.888 122.725 12.888C123.296 12.888 123.792 12.7573 124.213 12.496C124.634 12.2347 124.965 11.8587 125.205 11.368L126.573 11.84C126.237 12.6027 125.73 13.1947 125.053 13.616C124.381 14.032 123.626 14.24 122.789 14.24ZM119.597 10.08V8.936H125.981V10.08H119.597ZM131.602 14.24C130.754 14.24 130.013 14.0533 129.378 13.68C128.749 13.3013 128.258 12.776 127.906 12.104C127.554 11.4267 127.378 10.6373 127.378 9.736C127.378 8.792 127.551 7.976 127.898 7.288C128.245 6.59467 128.727 6.06133 129.346 5.688C129.97 5.30933 130.701 5.12 131.538 5.12C132.407 5.12 133.146 5.32 133.754 5.72C134.367 6.12 134.826 6.69067 135.13 7.432C135.439 8.17333 135.573 9.056 135.53 10.08H134.09V9.568C134.074 8.50667 133.858 7.71467 133.442 7.192C133.026 6.664 132.407 6.4 131.586 6.4C130.706 6.4 130.037 6.68267 129.578 7.248C129.119 7.81333 128.89 8.624 128.89 9.68C128.89 10.6987 129.119 11.488 129.578 12.048C130.037 12.608 130.69 12.888 131.538 12.888C132.109 12.888 132.605 12.7573 133.026 12.496C133.447 12.2347 133.778 11.8587 134.018 11.368L135.386 11.84C135.05 12.6027 134.543 13.1947 133.866 13.616C133.194 14.032 132.439 14.24 131.602 14.24ZM128.41 10.08V8.936H134.794V10.08H128.41ZM136.663 14L136.671 2.48H138.111V9.52L141.735 5.36H143.583L139.767 9.68L144.031 14H142.039L138.111 9.84V14H136.663ZM80.208 30.24C79.392 30.24 78.656 30.1013 78 29.824C77.3493 29.5467 76.8107 29.152 76.384 28.64C75.9627 28.1227 75.688 27.512 75.56 26.808L77.032 26.576C77.2187 27.3013 77.6053 27.8693 78.192 28.28C78.784 28.6853 79.48 28.888 80.28 28.888C80.7973 28.888 81.264 28.808 81.68 28.648C82.1013 28.4827 82.4347 28.248 82.68 27.944C82.9253 27.64 83.048 27.28 83.048 26.864C83.048 26.608 83.0027 26.3893 82.912 26.208C82.8267 26.0213 82.7067 25.864 82.552 25.736C82.4027 25.6027 82.232 25.4907 82.04 25.4C81.848 25.3093 81.648 25.2347 81.44 25.176L78.504 24.304C78.184 24.208 77.8747 24.088 77.576 23.944C77.2773 23.7947 77.0107 23.6107 76.776 23.392C76.5413 23.168 76.3547 22.9013 76.216 22.592C76.0773 22.2773 76.008 21.9067 76.008 21.48C76.008 20.7973 76.184 20.216 76.536 19.736C76.8933 19.2507 77.376 18.88 77.984 18.624C78.592 18.368 79.2773 18.2427 80.04 18.248C80.8133 18.2533 81.504 18.392 82.112 18.664C82.7253 18.9307 83.232 19.3147 83.632 19.816C84.0373 20.3173 84.3093 20.9173 84.448 21.616L82.936 21.88C82.856 21.4107 82.6773 21.008 82.4 20.672C82.128 20.3307 81.7867 20.0693 81.376 19.888C80.9653 19.7013 80.5147 19.6053 80.024 19.6C79.5547 19.5947 79.1307 19.6693 78.752 19.824C78.3733 19.9787 78.072 20.1947 77.848 20.472C77.624 20.744 77.512 21.0587 77.512 21.416C77.512 21.768 77.6133 22.0533 77.816 22.272C78.0187 22.4853 78.2667 22.656 78.56 22.784C78.8587 22.9067 79.1493 23.008 79.432 23.088L81.624 23.72C81.8747 23.7893 82.1627 23.8853 82.488 24.008C82.8187 24.1307 83.1387 24.304 83.448 24.528C83.7573 24.7467 84.0133 25.04 84.216 25.408C84.4187 25.7707 84.52 26.2293 84.52 26.784C84.52 27.3387 84.408 27.832 84.184 28.264C83.9653 28.696 83.6587 29.0587 83.264 29.352C82.8693 29.64 82.4107 29.8587 81.888 30.008C81.3653 30.1627 80.8053 30.24 80.208 30.24ZM88.8381 30.224C88.2835 30.224 87.8061 30.136 87.4061 29.96C87.0115 29.784 86.6835 29.5493 86.4221 29.256C86.1608 28.9627 85.9555 28.6373 85.8061 28.28C85.6568 27.9227 85.5501 27.5573 85.4861 27.184C85.4275 26.8107 85.3981 26.4613 85.3981 26.136V21.36H86.8381V25.688C86.8381 26.0933 86.8755 26.4853 86.9501 26.864C87.0248 27.2427 87.1501 27.584 87.3261 27.888C87.5075 28.192 87.7475 28.432 88.0461 28.608C88.3501 28.784 88.7288 28.872 89.1821 28.872C89.5395 28.872 89.8648 28.8107 90.1581 28.688C90.4515 28.5653 90.7021 28.384 90.9101 28.144C91.1181 27.8987 91.2781 27.5893 91.3901 27.216C91.5021 26.8427 91.5581 26.408 91.5581 25.912L92.4941 26.2C92.4941 27.032 92.3421 27.7493 92.0381 28.352C91.7395 28.9547 91.3155 29.4187 90.7661 29.744C90.2221 30.064 89.5795 30.224 88.8381 30.224ZM91.7181 30V27.688H91.5581V21.36H92.9901V30H91.7181ZM98.558 30.24C97.7473 30.24 97.0647 30.04 96.51 29.64C95.9553 29.2347 95.534 28.688 95.246 28C94.9633 27.3067 94.822 26.5307 94.822 25.672C94.822 24.8027 94.9633 24.024 95.246 23.336C95.534 22.648 95.9553 22.1067 96.51 21.712C97.07 21.3173 97.7553 21.12 98.566 21.12C99.366 21.12 100.054 21.32 100.63 21.72C101.211 22.1147 101.657 22.656 101.966 23.344C102.275 24.032 102.43 24.808 102.43 25.672C102.43 26.536 102.275 27.312 101.966 28C101.657 28.688 101.211 29.2347 100.63 29.64C100.054 30.04 99.3633 30.24 98.558 30.24ZM94.582 33.84V21.36H95.854V27.72H96.014V33.84H94.582ZM98.382 28.936C98.9527 28.936 99.4247 28.792 99.798 28.504C100.171 28.216 100.451 27.8267 100.638 27.336C100.825 26.84 100.918 26.2853 100.918 25.672C100.918 25.064 100.825 24.5147 100.638 24.024C100.457 23.5333 100.174 23.144 99.79 22.856C99.4113 22.568 98.9287 22.424 98.342 22.424C97.782 22.424 97.318 22.5627 96.95 22.84C96.582 23.112 96.3073 23.4933 96.126 23.984C95.9447 24.4693 95.854 25.032 95.854 25.672C95.854 26.3013 95.942 26.864 96.118 27.36C96.2993 27.8507 96.5767 28.2373 96.95 28.52C97.3233 28.7973 97.8007 28.936 98.382 28.936ZM107.512 30.24C106.701 30.24 106.018 30.04 105.464 29.64C104.909 29.2347 104.488 28.688 104.2 28C103.917 27.3067 103.776 26.5307 103.776 25.672C103.776 24.8027 103.917 24.024 104.2 23.336C104.488 22.648 104.909 22.1067 105.464 21.712C106.024 21.3173 106.709 21.12 107.52 21.12C108.32 21.12 109.008 21.32 109.584 21.72C110.165 22.1147 110.61 22.656 110.92 23.344C111.229 24.032 111.384 24.808 111.384 25.672C111.384 26.536 111.229 27.312 110.92 28C110.61 28.688 110.165 29.2347 109.584 29.64C109.008 30.04 108.317 30.24 107.512 30.24ZM103.536 33.84V21.36H104.808V27.72H104.968V33.84H103.536ZM107.336 28.936C107.906 28.936 108.378 28.792 108.752 28.504C109.125 28.216 109.405 27.8267 109.592 27.336C109.778 26.84 109.872 26.2853 109.872 25.672C109.872 25.064 109.778 24.5147 109.592 24.024C109.41 23.5333 109.128 23.144 108.744 22.856C108.365 22.568 107.882 22.424 107.296 22.424C106.736 22.424 106.272 22.5627 105.904 22.84C105.536 23.112 105.261 23.4933 105.08 23.984C104.898 24.4693 104.808 25.032 104.808 25.672C104.808 26.3013 104.896 26.864 105.072 27.36C105.253 27.8507 105.53 28.2373 105.904 28.52C106.277 28.7973 106.754 28.936 107.336 28.936ZM112.657 30V18.24H114.081V30H112.657ZM117.042 33.84L118.714 29.296L118.738 30.64L114.962 21.36H116.458L119.418 28.824H118.906L121.682 21.36H123.13L118.426 33.84H117.042ZM122.786 30V28.432H124.354V30H122.786Z" fill="black"/>
<defs>
<clipPath id="clip0_2828_1462">
<rect width="67" height="32" fill="white"/>
</clipPath>
</defs>
</svg>
