<svg width="663" height="365" viewBox="0 0 663 365" fill="none" xmlns="http://www.w3.org/2000/svg">
<path d="M241.937 294.663C265.658 239.413 304.316 228.897 304.316 228.897L261.176 216.867C261.176 216.867 236.041 226.846 223.314 258.872" fill="#7267FF"/>
<path d="M231.698 269.747C231.698 269.747 209.192 226.906 143.207 235.928C143.207 235.928 233.809 267.218 247.711 351.984" fill="#7267FF"/>
<path d="M247.713 282.573C247.713 282.573 263.408 317.587 251.238 347.463C249.346 352.123 244.327 354.752 239.388 353.737C228.234 351.466 205.907 339.695 172.706 302.789C141.934 267.954 133.051 239.612 143.209 235.928" fill="#7267FF"/>
<path d="M366.875 317.428C330.268 268.612 339.529 227.383 339.529 227.383L304.077 223.619C304.077 223.619 296.966 293.787 336.621 329.398" fill="#7267FF"/>
<path d="M360.642 308.524C379.324 288.189 404.758 285.381 404.758 285.381L382.69 362.42H282.448C282.448 362.42 290.434 325.514 326.325 318.104" fill="#7267FF"/>
<path d="M394.205 76.313L188.682 49.1861C180.337 48.0906 172.669 53.9661 171.554 62.3113L155.082 187.171C153.987 195.516 159.862 203.184 168.208 204.299L419.261 237.421C427.606 238.517 435.274 232.641 436.389 224.296L452.861 99.4365C452.861 99.4365 460.27 85.0366 394.205 76.313Z" fill="#7267FF"/>
<path d="M385.479 86.5507L196.108 61.5549C188.42 60.5391 181.41 65.5383 180.454 72.7084L166.313 179.901C165.357 187.072 170.834 193.704 178.542 194.72L409.877 225.252C417.565 226.268 424.576 221.269 425.532 214.099L439.673 106.906C439.653 106.906 446.365 94.5772 385.479 86.5507Z" fill="#E2FFFE"/>
<path d="M409.278 86.1119C387.808 79.3601 375.878 56.4556 382.649 34.9851C389.421 13.5146 412.286 1.58439 433.756 8.33624L539.476 40.6415C560.946 47.3934 564.591 66.9717 557.819 88.4422C551.067 109.913 528.163 121.843 506.692 115.071L434.294 93.9592L398.842 119.134L409.278 86.1119Z" fill="black" stroke="black" stroke-width="2.83863" stroke-miterlimit="10" stroke-linecap="round" stroke-linejoin="round"/>
<path d="M419.816 89.4187C398.345 82.6669 386.415 59.7624 393.187 38.2919C399.959 16.8214 422.823 4.89118 444.294 11.6629L541.728 40.6421C563.198 47.4139 575.128 70.2985 568.357 91.7689C561.605 113.239 538.7 125.17 517.23 118.398L444.832 97.2859L409.379 122.461L419.816 89.4187Z" fill="#E9FF8F" stroke="black" stroke-width="2.83863" stroke-miterlimit="10" stroke-linecap="round" stroke-linejoin="round"/>
<path d="M304.077 223.161C304.077 223.161 296.966 293.329 336.621 328.94" stroke="black" stroke-width="2.83863" stroke-miterlimit="10" stroke-linecap="round" stroke-linejoin="round"/>
<path d="M339.533 226.945C339.533 226.945 330.272 268.173 366.879 316.99" stroke="black" stroke-width="2.83863" stroke-miterlimit="10" stroke-linecap="round" stroke-linejoin="round"/>
<path d="M360.642 308.087C379.324 287.752 404.758 284.943 404.758 284.943L382.69 361.982H282.448C282.448 361.982 290.434 325.076 326.325 317.667" stroke="black" stroke-width="2.83863" stroke-miterlimit="10" stroke-linecap="round" stroke-linejoin="round"/>
<path d="M382.213 362.958C428.54 363.775 461.164 362.042 461.463 356.047C461.742 350.43 430.711 344.097 389.005 340.213L386.177 350.311L382.213 362.958Z" fill="black"/>
<path d="M303.719 228.599C303.719 228.599 265.08 239.115 241.339 294.364" stroke="black" stroke-width="2.83863" stroke-miterlimit="10" stroke-linecap="round" stroke-linejoin="round"/>
<path d="M260.602 216.548C260.602 216.548 235.466 226.526 222.739 258.553" stroke="black" stroke-width="2.83863" stroke-miterlimit="10" stroke-linecap="round" stroke-linejoin="round"/>
<path d="M231.104 269.448C231.104 269.448 208.598 226.607 142.613 235.629C142.613 235.629 233.215 266.919 247.117 351.685" stroke="black" stroke-width="2.83863" stroke-miterlimit="10" stroke-linecap="round" stroke-linejoin="round"/>
<path d="M247.135 282.274C247.135 282.274 262.83 317.288 250.66 347.164C248.768 351.824 243.749 354.453 238.81 353.438C227.656 351.167 205.329 339.396 172.128 302.49C141.356 267.655 132.473 239.314 142.631 235.629" stroke="black" stroke-width="2.83863" stroke-miterlimit="10" stroke-linecap="round" stroke-linejoin="round"/>
<path d="M160.358 288.15C186.07 326.35 236.062 361.105 246.16 352.262C250.382 348.558 235.245 298.606 198.538 269.029L166.99 247.101C164.381 245.328 155.597 241.325 152.789 239.871C140.381 233.418 138.13 236.843 138.588 244.85C138.847 249.172 139.783 254.57 141.934 258.354L160.358 288.15Z" fill="black"/>
<path d="M157.192 364.372C124.566 364.372 98.1183 359.932 98.1183 354.454C98.1183 348.976 124.566 344.535 157.192 344.535C189.817 344.535 216.266 348.976 216.266 354.454C216.266 359.932 189.817 364.372 157.192 364.372Z" fill="black"/>
<path d="M115.146 170.918C133.987 165.62 144.962 146.042 139.664 127.181C134.366 108.319 114.787 97.3651 95.926 102.663L37.0913 119.234C18.2499 124.532 7.27566 144.11 12.5736 162.972C17.8715 181.833 37.4498 192.787 56.3112 187.489L93.1576 177.113L123.292 199.937L115.146 170.918Z" fill="black" stroke="black" stroke-width="2.83863" stroke-miterlimit="10" stroke-linecap="round" stroke-linejoin="round"/>
<path d="M105.904 173.528C124.745 168.23 135.719 148.651 130.421 129.79C125.124 110.929 105.545 99.9744 86.6838 105.272L27.8492 121.843C9.00772 127.141 -1.96652 146.72 3.33139 165.581C8.6293 184.442 28.2077 195.397 47.069 190.099L83.9154 179.722L114.05 202.547L105.904 173.528Z" fill="#FFC48D" stroke="black" stroke-width="2.83863" stroke-miterlimit="10" stroke-linecap="round" stroke-linejoin="round"/>
<path d="M102.957 140.406L101.842 136.463L78.7579 129.771L80.2716 135.168L97.1014 139.729L97.201 140.068L85.2508 152.794L86.7645 158.192L102.957 140.406Z" fill="black"/>
<path d="M83.7383 166.457L58.3242 127.32L53.8031 128.595L79.2171 167.732L83.7383 166.457Z" fill="black"/>
<path d="M55.9351 161.04L39.1053 156.419L39.0057 156.08L50.9758 143.413L49.4621 138.016L33.2697 155.782L34.385 159.725L57.4688 166.417L55.9351 161.04Z" fill="black"/>
<path d="M431.985 46.9362C431.985 46.9362 441.307 64.483 453.695 73.0274C462.219 78.9029 474.09 75.4373 478.472 66.0564C489.804 41.7976 464.49 34.0499 460.467 41.8374C456.224 50.0631 480.563 95.7327 502.671 78.4448C524.778 61.1569 494.286 28.8715 496.058 53.5287C497.831 78.1859 529.359 92.9443 529.359 92.9443" stroke="black" stroke-width="2.83863" stroke-miterlimit="10" stroke-linecap="round" stroke-linejoin="round"/>
<path d="M452.84 51.0195L431.409 46.1797L425.554 65.7979" stroke="black" stroke-width="2.83863" stroke-miterlimit="10" stroke-linecap="round" stroke-linejoin="round"/>
<path d="M531.411 98.5602C528.881 98.5602 526.83 96.5093 526.83 93.9793C526.83 91.4494 528.881 89.3984 531.411 89.3984C533.941 89.3984 535.992 91.4494 535.992 93.9793C535.992 96.5093 533.941 98.5602 531.411 98.5602Z" fill="black" stroke="black" stroke-width="2.83863" stroke-miterlimit="10" stroke-linecap="round" stroke-linejoin="round"/>
<path d="M393.966 76.313L188.423 49.1861C180.078 48.0906 172.409 53.9661 171.294 62.3113L154.823 187.171C153.727 195.516 159.603 203.184 167.948 204.299L419.021 237.421C427.366 238.517 435.034 232.641 436.15 224.296L452.621 99.4365" stroke="black" stroke-width="2.83863" stroke-miterlimit="10" stroke-linecap="round" stroke-linejoin="round"/>
<path d="M409.341 89.6774L194.735 61.3954C188.481 60.5788 182.745 64.9804 181.909 71.2343L167.369 181.335C166.553 187.589 170.955 193.325 177.208 194.162L412.707 225.252C418.96 226.069 424.697 221.667 425.533 215.413L440.77 100.194" stroke="black" stroke-width="2.83863" stroke-miterlimit="10" stroke-linecap="round" stroke-linejoin="round"/>
<path d="M206.246 72.6094L194.674 81.4923" stroke="black" stroke-width="2.83863" stroke-miterlimit="10" stroke-linecap="round" stroke-linejoin="round"/>
<path d="M196.007 71.2549L204.91 82.8465" stroke="black" stroke-width="2.83863" stroke-miterlimit="10" stroke-linecap="round" stroke-linejoin="round"/>
<path d="M227.418 85.8144L212.938 83.9023" stroke="black" stroke-width="2.83863" stroke-miterlimit="10" stroke-linecap="round" stroke-linejoin="round"/>
<path d="M266.655 165.201C249.913 165.201 236.342 151.63 236.342 134.888C236.342 118.146 249.913 104.574 266.655 104.574C283.397 104.574 296.969 118.146 296.969 134.888C296.969 151.63 283.397 165.201 266.655 165.201Z" fill="white" stroke="black" stroke-width="2.83863" stroke-miterlimit="10" stroke-linecap="round" stroke-linejoin="round"/>
<path d="M279.441 107.403C264.265 100.332 246.22 106.925 239.169 122.101C232.099 137.278 238.691 155.323 253.868 162.373L279.441 107.403Z" fill="black"/>
<path d="M327.921 173.288C311.179 173.288 297.607 159.716 297.607 142.975C297.607 126.233 311.179 112.661 327.921 112.661C344.663 112.661 358.234 126.233 358.234 142.975C358.234 159.716 344.663 173.288 327.921 173.288Z" fill="white" stroke="black" stroke-width="2.83863" stroke-miterlimit="10" stroke-linecap="round" stroke-linejoin="round"/>
<path d="M340.707 115.49C325.53 108.419 307.486 115.012 300.435 130.188C293.364 145.365 299.957 163.41 315.134 170.46L340.707 115.49Z" fill="black"/>
<path d="M565.449 363.137H661.051C661.051 363.137 643.086 321.271 596.301 321.271C579.172 321.271 565.449 334.755 565.449 363.137Z" fill="white" stroke="black" stroke-width="2.83863" stroke-miterlimit="10" stroke-linecap="round" stroke-linejoin="round"/>
<path d="M592.02 321.71V347.98V363.137" stroke="black" stroke-width="2.83863" stroke-miterlimit="10" stroke-linecap="round" stroke-linejoin="round"/>
<path d="M592.02 349.195H566.745C566.745 349.195 505.699 352.043 502.154 327.545C497.653 296.534 521.952 287.392 524.78 292.969C528.465 300.219 507.492 326.529 477.497 309.759C447.502 292.989 480.365 246.085 465.627 228.558C453.935 214.656 436.667 220.511 436.667 220.511" stroke="black" stroke-width="2.83863" stroke-miterlimit="10" stroke-linecap="round" stroke-linejoin="round"/>
<path d="M338.734 227.303L303.581 222.185V227.941L338.456 240.01L338.734 227.303Z" fill="black"/>
<path d="M303.582 222.184L258.271 216.548L256.08 218.559L292.648 233.537L303.243 228.737L303.582 222.184Z" fill="black"/>
<path d="M361.179 307.509L367.852 317.109L366.776 302.351L361.179 307.509Z" fill="black"/>
<path d="M336.145 329.777L325.429 317.866L315.59 320.933L336.145 329.777Z" fill="black"/>
<path d="M232.117 269.308L226.262 250.785L222.736 257.915L232.117 269.308Z" fill="black"/>
<path d="M249.484 288.509L247.134 283.43L242.095 295.061L249.484 288.509Z" fill="black"/>
<path d="M407.11 217.943L294.918 208.482L414.021 224.874C414.021 224.874 424.02 224.535 425.215 214.696C426.41 204.857 436.926 122.461 436.926 122.461L419.06 206.232C416.332 216.051 412.707 218.72 407.11 217.943Z" fill="black"/>
<path d="M281.411 32.5747C289.577 11.1839 312.402 0.0104578 332.399 7.65857C352.395 15.3067 361.956 38.8286 353.79 60.2194" fill="#47CAFF"/>
<path d="M281.411 32.5747C289.577 11.1839 312.402 0.0104578 332.399 7.65857C352.395 15.3067 361.956 38.8286 353.79 60.2194" stroke="black" stroke-width="2.83863" stroke-miterlimit="10" stroke-linecap="round"/>
<path d="M326.165 5.88574C342.557 12.1397 348.532 33.9686 340.406 55.2599" stroke="black" stroke-width="2.83863" stroke-miterlimit="10" stroke-linecap="round"/>
<path d="M326.641 5.24896C328.494 2.52034 331.86 1.28549 334.867 2.42075C337.775 3.5361 339.448 6.54356 339.149 9.67053" fill="#47CAFF"/>
<path d="M326.641 5.24896C328.494 2.52034 331.86 1.28549 334.867 2.42075C337.775 3.5361 339.448 6.54356 339.149 9.67053" stroke="black" stroke-width="2.83863" stroke-miterlimit="10" stroke-linecap="round"/>
<path d="M299.836 50.1323C271.312 39.4535 249.645 26.9051 251.442 22.1047C253.239 17.3043 277.82 22.0696 306.344 32.7484C334.869 43.4271 356.535 55.9755 354.738 60.7759C352.941 65.5763 328.361 60.811 299.836 50.1323Z" fill="black"/>
</svg>
